# Blender v2.77 (sub 0) OBJ File: 'rock-medium.blend'
# www.blender.org
mtllib rock-medium.mtl
o Icosphere.006
v -0.065213 -0.017998 -0.022812
v 0.125414 -0.017998 0.004751
v -0.072036 -0.017998 0.141070
v 0.258636 -0.017926 0.023598
v 0.250064 -0.017989 -0.142101
v -0.260060 -0.017998 0.050910
v -0.178809 -0.017998 -0.141132
v 0.059425 -0.017998 -0.169658
v 0.320801 0.110718 -0.069257
v -0.076988 -0.017972 0.255831
v 0.118438 -0.017974 0.168474
v 0.009707 0.115076 0.226639
v -0.392975 -0.020578 0.101781
v -0.265980 -0.018657 0.214261
v -0.343414 0.080062 0.173582
v -0.258167 -0.018172 -0.223784
v -0.372622 -0.018585 -0.066373
v -0.342746 0.094743 -0.144885
v 0.146984 -0.017840 -0.272723
v -0.054171 -0.017998 -0.287981
v 0.083503 0.128515 -0.342702
v 0.208117 0.114928 0.091302
v -0.190676 0.105772 0.284390
v -0.393313 0.072188 0.027249
v -0.171988 0.110145 -0.305017
v 0.270033 0.126925 -0.251746
v 0.065877 0.254710 0.114558
v 0.216702 0.274281 -0.007282
v 0.013458 0.372220 0.059596
v -0.225724 0.207646 0.197953
v -0.095015 0.269363 0.216544
v -0.158830 0.344200 0.105780
v -0.300666 0.187586 -0.051092
v -0.283722 0.202315 0.079187
v -0.208066 0.335648 -0.042828
v -0.037489 0.262244 -0.310181
v -0.231077 0.258727 -0.195290
v -0.047223 0.378704 -0.192622
v 0.285769 0.265835 -0.158580
v 0.172660 0.307322 -0.279632
v 0.146464 0.384733 -0.105467
v -0.066219 0.412030 -0.023846
vt 0.1488 0.5306
vt 0.2348 0.6104
vt 0.0887 0.6104
vt 0.9244 0.3000
vt 0.8440 0.2844
vt 0.9244 0.1990
vt 0.6301 0.0998
vt 0.5909 0.1916
vt 0.5032 0.0998
vt 0.6361 0.5220
vt 0.5092 0.5220
vt 0.5969 0.4302
vt 0.4656 0.6302
vt 0.4055 0.5504
vt 0.5516 0.5504
vt 0.7951 0.8623
vt 0.7951 0.7612
vt 0.8834 0.8078
vt 0.2535 0.6613
vt 0.3839 0.6613
vt 0.3089 0.7425
vt 0.9317 0.3089
vt 0.9974 0.3886
vt 0.9170 0.3886
vt 0.3519 0.8243
vt 0.2688 0.9088
vt 0.2535 0.8243
vt 0.5257 0.3127
vt 0.4128 0.2644
vt 0.5257 0.2066
vt 0.0887 0.7798
vt 0.1924 0.7798
vt 0.1161 0.8717
vt 0.3214 0.7442
vt 0.3806 0.8227
vt 0.2535 0.8227
vt 0.2373 0.9134
vt 0.1770 0.9676
vt 0.1770 0.8733
vt 0.1544 0.7782
vt 0.0887 0.7049
vt 0.2315 0.7049
vt 0.6188 0.4204
vt 0.6188 0.3143
vt 0.7275 0.3788
vt 0.6490 0.0008
vt 0.7445 0.0713
vt 0.6012 0.0713
vt 0.2535 0.9816
vt 0.3064 0.9104
vt 0.3618 0.9816
vt 0.8319 0.4551
vt 0.9021 0.4158
vt 0.9021 0.5351
vt 0.3906 0.4955
vt 0.2535 0.4955
vt 0.3501 0.4030
vt 0.6317 0.1217
vt 0.7244 0.0745
vt 0.7244 0.1916
vt 0.7774 0.0008
vt 0.8765 0.0634
vt 0.7461 0.0634
vt 0.2535 0.5801
vt 0.3996 0.5801
vt 0.3395 0.6597
vt 0.8938 0.5930
vt 0.9601 0.5448
vt 0.9601 0.6676
vt 0.9154 0.4102
vt 0.8347 0.3251
vt 0.9154 0.3089
vt 0.6172 0.3711
vt 0.5145 0.4279
vt 0.5145 0.3143
vt 0.6300 0.3127
vt 0.5273 0.2559
vt 0.6300 0.1991
vt 0.1754 0.8733
vt 0.1364 0.9649
vt 0.0887 0.8733
vt 0.5918 0.5504
vt 0.6795 0.6422
vt 0.5533 0.6422
vt 0.5318 0.8706
vt 0.5043 0.9349
vt 0.4055 0.8706
vt 0.9216 0.9282
vt 0.7951 0.9282
vt 0.8946 0.8639
vt 0.2152 0.6120
vt 0.1269 0.7033
vt 0.0887 0.6120
vt 0.9717 0.8524
vt 0.8850 0.8524
vt 0.9332 0.7612
vt 0.0008 0.9082
vt 0.0008 0.8083
vt 0.0827 0.8999
vt 0.5996 0.0806
vt 0.4535 0.0806
vt 0.5395 0.0008
vt 0.6942 0.9106
vt 0.6632 0.8481
vt 0.7935 0.8481
vt 0.6788 0.7596
vt 0.6788 0.6438
vt 0.7682 0.6937
vt 0.8139 0.1903
vt 0.7260 0.1429
vt 0.8139 0.0745
vt 0.7302 0.6391
vt 0.6811 0.5504
vt 0.7975 0.5504
vt 0.2266 0.0998
vt 0.3729 0.0998
vt 0.2933 0.1926
vt 0.2535 0.5785
vt 0.3282 0.4971
vt 0.3998 0.5785
vt 0.7291 0.3796
vt 0.8331 0.3143
vt 0.8331 0.4102
vt 0.0008 0.5901
vt 0.0816 0.6733
vt 0.0008 0.6968
vt 0.9037 0.4293
vt 0.9829 0.4158
vt 0.9829 0.5141
vt 0.7698 0.6438
vt 0.8681 0.7088
vt 0.7698 0.7422
vt 0.6376 0.8286
vt 0.5852 0.9254
vt 0.5533 0.8286
vt 0.0705 0.9098
vt 0.0812 0.9951
vt 0.0008 0.9951
vt 0.6337 0.9270
vt 0.5599 0.9992
vt 0.5533 0.9270
vt 0.3105 0.0879
vt 0.1528 0.0879
vt 0.2407 0.0008
vt 0.4112 0.2274
vt 0.3172 0.3127
vt 0.2535 0.2274
vt 0.5358 0.7160
vt 0.4055 0.7160
vt 0.4705 0.6318
vt 0.4055 0.4815
vt 0.5076 0.4302
vt 0.5076 0.5488
vt 0.5129 0.4285
vt 0.4055 0.3762
vt 0.5129 0.3143
vt 0.5533 0.7299
vt 0.6235 0.6438
vt 0.6772 0.7299
vt 0.7951 0.9299
vt 0.9177 0.9299
vt 0.8531 0.9908
vt 0.3745 0.0998
vt 0.5016 0.0998
vt 0.4463 0.1991
vt 0.6316 0.1990
vt 0.7319 0.2537
vt 0.6316 0.3127
vt 0.9819 0.7111
vt 0.8850 0.7596
vt 0.8850 0.6791
vt 0.8922 0.5448
vt 0.8922 0.6391
vt 0.7991 0.6003
vt 0.9072 0.0745
vt 0.9834 0.1492
vt 0.9072 0.1753
vt 0.1784 0.3269
vt 0.1148 0.2274
vt 0.2519 0.2274
vt 0.1132 0.1362
vt 0.0008 0.2244
vt 0.0008 0.0998
vt 0.0008 0.4957
vt 0.0840 0.4818
vt 0.0840 0.5885
vt 0.4055 0.7176
vt 0.5315 0.7176
vt 0.4671 0.7993
vt 0.2250 0.2258
vt 0.1148 0.1640
vt 0.2250 0.0998
vt 0.1148 0.4401
vt 0.1148 0.3285
vt 0.2320 0.3896
vt 0.4353 0.8009
vt 0.5453 0.8690
vt 0.4055 0.8690
vt 0.0887 0.4417
vt 0.2320 0.4417
vt 0.1840 0.5290
vt 0.0008 0.4236
vt 0.0829 0.3640
vt 0.0829 0.4802
vt 0.6632 0.9122
vt 0.7732 0.9122
vt 0.7437 0.9804
vt 0.7335 0.2892
vt 0.7335 0.1990
vt 0.8424 0.2736
vt 0.6788 0.7810
vt 0.7935 0.7612
vt 0.7935 0.8464
vt 0.9055 0.0745
vt 0.9055 0.1700
vt 0.8155 0.1151
vt 0.5533 0.7315
vt 0.6609 0.7830
vt 0.5533 0.8270
vt 0.0008 0.7202
vt 0.0784 0.6984
vt 0.0784 0.8067
vt 0.6377 0.4302
vt 0.7359 0.5248
vt 0.6377 0.5356
vt 0.0965 0.3624
vt 0.0008 0.2691
vt 0.0965 0.2260
vt 0.7375 0.4302
vt 0.8303 0.4829
vt 0.7375 0.5351
vt 0.4519 0.0008
vt 0.3618 0.0938
vt 0.3121 0.0008
vt 0.0860 0.0008
vt 0.1512 0.0982
vt 0.0008 0.0982
vt 0.4039 0.3143
vt 0.3045 0.4014
vt 0.2535 0.3143
vn -0.0000 -1.0000 -0.0000
vn 0.0002 -1.0000 0.0001
vn 0.0000 -1.0000 0.0001
vn 0.0005 -1.0000 0.0003
vn 0.0005 -1.0000 0.0004
vn 0.0002 -1.0000 -0.0004
vn 0.8861 -0.4612 -0.0457
vn 0.4072 -0.0655 0.9110
vn -0.6472 -0.2051 0.7342
vn -0.7937 -0.1909 -0.5776
vn 0.0694 -0.4057 -0.9114
vn 0.8186 0.0188 0.5740
vn 0.2755 0.0313 0.9608
vn -0.9229 0.2391 0.3018
vn -0.6839 -0.0025 -0.7295
vn 0.4245 -0.2341 -0.8746
vn 0.4858 0.5387 0.6884
vn 0.4860 0.5387 0.6882
vn -0.3956 0.6390 0.6597
vn -0.8480 0.5275 0.0506
vn -0.4035 0.6331 -0.6606
vn 0.5668 0.7811 -0.2619
vn 0.0002 -1.0000 0.0002
vn 0.0001 -1.0000 0.0002
vn 0.0001 -1.0000 -0.0006
vn 0.0005 -1.0000 -0.0011
vn 0.0181 -0.9998 -0.0034
vn 0.0019 -1.0000 -0.0040
vn 0.0035 -1.0000 0.0004
vn 0.0028 -1.0000 -0.0006
vn 0.0036 -1.0000 0.0015
vn 0.0156 -0.9998 -0.0100
vn 0.0007 -1.0000 -0.0007
vn 0.0012 -1.0000 0.0010
vn 0.9628 0.0666 -0.2619
vn 0.8993 -0.3358 -0.2800
vn 0.6796 -0.4999 -0.5369
vn 0.5165 0.3999 0.7571
vn 0.5167 0.3998 0.7571
vn 0.5166 0.3999 0.7571
vn 0.5608 0.0989 0.8220
vn 0.7163 -0.0808 0.6931
vn -0.5812 0.4009 0.7081
vn -0.5710 -0.1128 0.8132
vn -0.1966 -0.3884 0.9003
vn -0.8216 0.5442 -0.1700
vn -0.9597 0.0634 -0.2736
vn -0.9876 -0.1006 -0.1207
vn -0.1523 0.1013 -0.9831
vn -0.1245 -0.2424 -0.9622
vn -0.2782 -0.3734 -0.8850
vn 0.5355 0.4233 0.7308
vn 0.7859 0.2941 0.5439
vn 0.8424 0.3989 0.3623
vn -0.3591 0.5289 0.7690
vn 0.2589 0.2370 0.9364
vn 0.5164 0.4000 0.7572
vn -0.7701 0.6373 0.0281
vn -0.7876 0.5683 0.2380
vn -0.7250 0.6063 0.3268
vn -0.4746 0.3929 -0.7876
vn -0.6748 0.2456 -0.6959
vn -0.8380 0.5261 -0.1448
vn 0.7453 0.3111 -0.5897
vn 0.4369 0.0976 -0.8942
vn 0.0743 0.2986 -0.9515
vn 0.2154 0.9452 0.2453
vn 0.5037 0.7304 0.4613
vn 0.6827 0.6775 0.2738
vn -0.0247 0.8929 0.4496
vn 0.0133 0.8321 0.5545
vn 0.4855 0.5386 0.6886
vn -0.4826 0.8689 0.1099
vn -0.7528 0.6226 0.2136
vn -0.7377 0.5868 0.3339
vn -0.4392 0.8707 -0.2214
vn -0.5138 0.7946 -0.3233
vn -0.8357 0.5306 -0.1415
vn 0.0539 0.9808 -0.1876
vn 0.1443 0.9121 -0.3837
vn -0.0493 0.7075 -0.7050
usemtl Rock
s 1
f 1/1/1 2/2/2 3/3/3
f 4/4/4 2/5/2 5/6/5
f 1/7/1 3/8/3 6/9/1
f 1/10/1 6/11/1 7/12/1
f 1/13/1 7/14/1 8/15/6
f 4/16/7 5/17/7 9/18/7
f 10/19/8 11/20/8 12/21/8
f 13/22/9 14/23/9 15/24/9
f 16/25/10 17/26/10 18/27/10
f 19/28/11 20/29/11 21/30/11
f 4/31/12 9/32/12 22/33/12
f 10/34/13 12/35/13 23/36/13
f 13/37/14 15/38/14 24/39/14
f 16/40/15 18/41/15 25/42/15
f 19/43/16 21/44/16 26/45/16
f 27/46/17 28/47/18 29/48/17
f 30/49/19 31/50/19 32/51/19
f 33/52/20 34/53/20 35/54/20
f 36/55/21 37/56/21 38/57/21
f 39/58/22 40/59/22 41/60/22
f 3/61/3 11/62/23 10/63/24
f 3/64/3 2/65/2 11/66/23
f 2/67/2 4/68/4 11/69/23
f 5/70/25 8/71/6 19/72/26
f 5/73/25 2/74/2 8/75/6
f 2/76/2 1/77/1 8/78/6
f 6/79/27 14/80/27 13/81/27
f 6/82/28 3/83/28 14/84/28
f 3/85/29 10/86/29 14/87/29
f 7/88/30 17/89/30 16/90/30
f 7/91/31 6/92/31 17/93/31
f 6/94/32 13/95/32 17/96/32
f 8/97/6 20/98/33 19/99/26
f 8/100/6 7/101/1 20/102/33
f 7/103/34 16/104/34 20/105/34
f 9/106/35 26/107/35 39/108/35
f 9/109/36 5/110/36 26/111/36
f 5/112/37 19/113/37 26/114/37
f 12/115/38 22/116/39 27/117/40
f 12/118/41 11/119/41 22/120/41
f 11/121/42 4/122/42 22/123/42
f 15/124/43 23/125/43 30/126/43
f 15/127/44 14/128/44 23/129/44
f 14/130/45 10/131/45 23/132/45
f 18/133/46 24/134/46 33/135/46
f 18/136/47 17/137/47 24/138/47
f 17/139/48 13/140/48 24/141/48
f 21/142/49 25/143/49 36/144/49
f 21/145/50 20/146/50 25/147/50
f 20/148/51 16/149/51 25/150/51
f 22/151/52 28/152/52 27/153/52
f 22/154/53 9/155/53 28/156/53
f 9/157/54 39/158/54 28/159/54
f 23/160/55 31/161/55 30/162/55
f 23/163/56 12/164/56 31/165/56
f 12/166/38 27/167/40 31/168/57
f 24/169/58 34/170/58 33/171/58
f 24/172/59 15/173/59 34/174/59
f 15/175/60 30/176/60 34/177/60
f 25/178/61 37/179/61 36/180/61
f 25/181/62 18/182/62 37/183/62
f 18/184/63 33/185/63 37/186/63
f 26/187/64 40/188/64 39/189/64
f 26/190/65 21/191/65 40/192/65
f 21/193/66 36/194/66 40/195/66
f 29/196/67 41/197/67 42/198/67
f 29/199/68 28/200/68 41/201/68
f 28/202/69 39/203/69 41/204/69
f 32/205/70 29/206/70 42/207/70
f 32/208/71 31/209/71 29/210/71
f 31/211/72 27/212/17 29/213/17
f 35/214/73 32/215/73 42/216/73
f 35/217/74 34/218/74 32/219/74
f 34/220/75 30/221/75 32/222/75
f 38/223/76 35/224/76 42/225/76
f 38/226/77 37/227/77 35/228/77
f 37/229/78 33/230/78 35/231/78
f 41/232/79 38/233/79 42/234/79
f 41/235/80 40/236/80 38/237/80
f 40/238/81 36/239/81 38/240/81
