# Blender v2.77 (sub 0) OBJ File: ''
# www.blender.org
mtllib skybox.mtl
o Cube_Cube.001
v -1.000000 -1.000000 1.000000
v -1.000000 1.000000 1.000000
v -1.000000 -1.000000 -1.000000
v -1.000000 1.000000 -1.000000
v 1.000000 -1.000000 1.000000
v 1.000000 1.000000 1.000000
v 1.000000 -1.000000 -1.000000
v 1.000000 1.000000 -1.000000
vt 0.6250 0.0000
vt 0.3750 0.2500
vt 0.3750 0.0000
vt 0.6250 0.2500
vt 0.3750 0.5000
vt 0.3750 0.2500
vt 0.6250 0.5000
vt 0.3750 0.7500
vt 0.3750 0.5000
vt 0.6250 0.7500
vt 0.3750 1.0000
vt 0.3750 0.7500
vt 0.1250 0.7500
vt 0.1250 0.5000
vt 0.8750 0.5000
vt 0.6250 0.2500
vt 0.6250 0.5000
vt 0.6250 0.7500
vt 0.6250 1.0000
vt 0.8750 0.7500
vn -1.0000 0.0000 0.0000
vn 0.0000 0.0000 -1.0000
vn 1.0000 0.0000 0.0000
vn 0.0000 0.0000 1.0000
vn 0.0000 -1.0000 0.0000
vn 0.0000 1.0000 0.0000
usemtl None
s off
f 4/1/1 1/2/1 2/3/1
f 8/4/2 3/5/2 4/6/2
f 6/7/3 7/8/3 8/9/3
f 2/10/4 5/11/4 6/12/4
f 3/5/5 5/13/5 1/14/5
f 8/15/6 2/10/6 6/7/6
f 4/1/1 3/16/1 1/2/1
f 8/4/2 7/17/2 3/5/2
f 6/7/3 5/18/3 7/8/3
f 2/10/4 1/19/4 5/11/4
f 3/5/5 7/8/5 5/13/5
f 8/15/6 4/20/6 2/10/6
